<svg xmlns:xlink="http://www.w3.org/1999/xlink" width="128" xmlns="http://www.w3.org/2000/svg" height="128" id="screenshot-3a4a1928-1348-8019-8003-d8863e0ecd1c" viewBox="0 0 128 128" style="-webkit-print-color-adjust: exact;" fill="none" version="1.1"><g xmlns:xlink="http://www.w3.org/1999/xlink" width="24px" xml:space="preserve" height="24px" id="shape-3a4a1928-1348-8019-8003-d8863e0ecd1c" style="fill: rgb(0, 0, 0);" ry="0" rx="0" version="1.1" enable-background="new 0 0 24 24"><g id="shape-3a4a1928-1348-8019-8003-d8863e1056a8" rx="0" ry="0" style="fill: rgb(0, 0, 0);"><g id="shape-3a4a1928-1348-8019-8003-d8863e11b09c" rx="0" ry="0" style="fill: rgb(0, 0, 0);"><g id="shape-3a4a1928-1348-8019-8003-d8863e12a5fc"><g class="fills" id="fills-3a4a1928-1348-8019-8003-d8863e12a5fc"><path rx="0" ry="0" d="M30.933,120.000L8.533,120.000C6.933,120.000,5.867,118.933,5.867,117.333L5.867,44.800C5.867,43.200,6.933,42.133,8.533,42.133L31.467,42.133C33.067,42.133,34.133,43.200,34.133,44.800L34.133,117.333C33.600,118.933,32.533,120.000,30.933,120.000ZZM11.200,114.667L28.800,114.667L28.800,47.467L11.200,47.467L11.200,114.667ZZ" style="fill: rgb(255, 255, 255); fill-opacity: 0.9;"/></g></g></g><g id="shape-3a4a1928-1348-8019-8003-d8863e12cace" rx="0" ry="0" style="fill: rgb(0, 0, 0);"><g id="shape-3a4a1928-1348-8019-8003-d8863e146b55"><g class="fills" id="fills-3a4a1928-1348-8019-8003-d8863e146b55"><path rx="0" ry="0" d="M30.933,120.000L8.533,120.000C6.933,120.000,5.867,118.933,5.867,117.333L5.867,44.800C5.867,43.200,6.933,42.133,8.533,42.133L31.467,42.133C33.067,42.133,34.133,43.200,34.133,44.800L34.133,117.333C33.600,118.933,32.533,120.000,30.933,120.000ZZM11.200,114.667L28.800,114.667L28.800,47.467L11.200,47.467L11.200,114.667ZZ" style="fill: rgb(255, 255, 255); fill-opacity: 0.9;"/></g></g></g><g id="shape-3a4a1928-1348-8019-8003-d8863e14fea3" rx="0" ry="0" style="fill: rgb(0, 0, 0);"><g id="shape-3a4a1928-1348-8019-8003-d8863e1605ad"><g class="fills" id="fills-3a4a1928-1348-8019-8003-d8863e1605ad"><path rx="0" ry="0" d="M30.933,120.000L8.533,120.000C6.933,120.000,5.867,118.933,5.867,117.333L5.867,44.800C5.867,43.200,6.933,42.133,8.533,42.133L31.467,42.133C33.067,42.133,34.133,43.200,34.133,44.800L34.133,117.333C33.600,118.933,32.533,120.000,30.933,120.000ZZM11.200,114.667L28.800,114.667L28.800,47.467L11.200,47.467L11.200,114.667ZZ" style="fill: rgb(255, 255, 255); fill-opacity: 0.9;"/></g></g></g><g id="shape-3a4a1928-1348-8019-8003-d8863e167623" rx="0" ry="0" style="fill: rgb(0, 0, 0);"><g id="shape-3a4a1928-1348-8019-8003-d8863e17d97e"><g class="fills" id="fills-3a4a1928-1348-8019-8003-d8863e17d97e"><path rx="0" ry="0" d="M122.667,120.000L96.533,120.000C94.933,120.000,93.867,118.933,93.867,117.333L93.867,86.400C93.867,80.000,92.267,72.533,83.733,72.533C77.867,72.533,75.200,76.267,73.600,80.000C73.067,81.067,73.067,82.667,73.067,84.267L73.067,117.867C73.067,119.467,72.000,120.533,70.400,120.533L45.333,120.533C44.800,120.533,43.733,120.000,43.200,120.000C42.667,120.000,42.667,117.867,42.667,117.333C42.667,116.800,42.667,50.667,42.667,44.800C42.667,44.267,42.667,43.200,43.200,42.667C43.733,42.667,44.267,42.133,45.333,42.133L70.933,42.133C72.533,42.133,73.600,43.200,73.600,44.800L73.600,48.000C77.867,44.267,84.800,41.067,93.867,41.067C113.600,41.067,125.333,54.933,125.333,76.800L125.333,117.333C125.333,118.933,124.267,120.000,122.667,120.000ZZM99.200,114.667L120.000,114.667L120.000,76.800C120.000,58.133,110.400,46.400,93.867,46.400C81.600,46.400,74.667,52.800,73.600,56.533C73.067,57.600,72.000,58.667,70.400,58.133C69.333,58.133,68.267,57.067,68.267,55.467L68.267,47.467L48.000,47.467C48.000,59.733,48.000,102.933,48.000,114.667L68.267,114.667L68.267,83.733C68.267,81.600,68.267,79.467,68.800,77.333C71.467,70.400,76.800,66.667,83.733,66.667C93.333,66.667,99.200,73.600,99.200,85.867L99.200,114.667ZZ" style="fill: rgb(255, 255, 255); fill-opacity: 0.9;"/></g></g></g><g id="shape-3a4a1928-1348-8019-8003-d8863e1852e6" rx="0" ry="0" style="fill: rgb(0, 0, 0);"><g id="shape-3a4a1928-1348-8019-8003-d8863e19b3b5"><g class="fills" id="fills-3a4a1928-1348-8019-8003-d8863e19b3b5"><path rx="0" ry="0" d="M122.667,120.000L96.533,120.000C94.933,120.000,93.867,118.933,93.867,117.333L93.867,86.400C93.867,80.000,92.267,72.533,83.733,72.533C77.867,72.533,75.200,76.267,73.600,80.000C73.067,81.067,73.067,82.667,73.067,84.267L73.067,117.867C73.067,119.467,72.000,120.533,70.400,120.533L45.333,120.533C44.800,120.533,43.733,120.000,43.200,120.000C42.667,120.000,42.667,117.867,42.667,117.333C42.667,116.800,42.667,50.667,42.667,44.800C42.667,44.267,42.667,43.200,43.200,42.667C43.733,42.667,44.267,42.133,45.333,42.133L70.933,42.133C72.533,42.133,73.600,43.200,73.600,44.800L73.600,48.000C77.867,44.267,84.800,41.067,93.867,41.067C113.600,41.067,125.333,54.933,125.333,76.800L125.333,117.333C125.333,118.933,124.267,120.000,122.667,120.000ZZM99.200,114.667L120.000,114.667L120.000,76.800C120.000,58.133,110.400,46.400,93.867,46.400C81.600,46.400,74.667,52.800,73.600,56.533C73.067,57.600,72.000,58.667,70.400,58.133C69.333,58.133,68.267,57.067,68.267,55.467L68.267,47.467L48.000,47.467C48.000,59.733,48.000,102.933,48.000,114.667L68.267,114.667L68.267,83.733C68.267,81.600,68.267,79.467,68.800,77.333C71.467,70.400,76.800,66.667,83.733,66.667C93.333,66.667,99.200,73.600,99.200,85.867L99.200,114.667ZZ" style="fill: rgb(255, 255, 255); fill-opacity: 0.9;"/></g></g></g><g id="shape-3a4a1928-1348-8019-8003-d8863e19da25" rx="0" ry="0" style="fill: rgb(0, 0, 0);"><g id="shape-3a4a1928-1348-8019-8003-d8863e1aa620"><g class="fills" id="fills-3a4a1928-1348-8019-8003-d8863e1aa620"><path rx="0" ry="0" d="M19.200,38.400L19.200,38.400ZC9.600,38.400,2.667,32.000,2.667,23.467C2.667,14.400,9.600,8.000,19.200,8.000C28.800,8.000,35.200,14.400,35.733,22.933C35.733,32.000,28.800,38.400,19.200,38.400ZZM19.200,13.333C12.267,13.333,8.000,17.067,8.000,23.467C8.000,29.333,12.267,33.600,19.200,33.600L19.200,33.600C26.133,33.600,30.400,29.867,30.400,23.467C30.400,17.067,26.133,13.333,19.200,13.333ZZ" style="fill: rgb(255, 255, 255); fill-opacity: 0.9;"/></g></g></g></g></g></svg>