<svg xmlns:xlink="http://www.w3.org/1999/xlink" width="128" xmlns="http://www.w3.org/2000/svg" height="128" id="screenshot-3a4a1928-1348-8019-8003-d8897ecda377" viewBox="0 0 128 128" style="-webkit-print-color-adjust: exact;" fill="none" version="1.1"><g id="shape-3a4a1928-1348-8019-8003-d8897ecda377" rx="0" ry="0" style="fill: rgb(0, 0, 0);"><g id="shape-3a4a1928-1348-8019-8003-d8897ecde596"><defs rx="0" ry="0" style="fill: rgb(255, 255, 255); fill-opacity: 0.9;"/></g><g id="shape-3a4a1928-1348-8019-8003-d8897ecf7df5"><g class="fills" id="fills-3a4a1928-1348-8019-8003-d8897ecf7df5"><path class="cls-1" rx="0" ry="0" d="M41.750,22.500C45.309,22.497,48.799,23.484,51.830,25.350L54.000,26.710L56.540,26.170C69.538,23.413,83.045,27.463,92.382,36.917C101.718,46.371,105.599,59.928,102.680,72.890L102.160,75.220L103.270,77.330C104.719,80.079,105.470,83.142,105.460,86.250C105.459,93.042,101.878,99.330,96.039,102.798C90.199,106.266,82.964,106.399,77.000,103.150L74.940,102.000L72.600,102.480C59.825,105.115,46.578,101.188,37.303,92.017C28.027,82.846,23.950,69.644,26.440,56.840L26.930,54.290L25.530,52.100C21.745,46.176,21.491,38.659,24.870,32.494C28.248,26.329,34.720,22.497,41.750,22.500ZM41.750,16.000C32.343,15.998,23.685,21.127,19.167,29.377C14.649,37.628,14.991,47.686,20.060,55.610C17.159,70.549,21.916,85.950,32.739,96.650C43.561,107.349,59.015,111.931,73.920,108.860C83.875,114.283,96.205,112.559,104.290,104.612C112.375,96.666,114.311,84.367,109.060,74.320C112.469,59.197,107.942,43.379,97.048,32.350C86.154,21.321,70.394,16.598,55.230,19.820C51.179,17.319,46.511,15.996,41.750,16.000ZZ" style="fill: rgb(255, 255, 255); fill-opacity: 0.9;"/></g></g><g id="shape-3a4a1928-1348-8019-8003-d8897ed00d9a"><g class="fills" id="fills-3a4a1928-1348-8019-8003-d8897ed00d9a"><path class="cls-1" rx="0" ry="0" d="M41.400,51.580C41.400,40.060,52.920,35.880,63.670,35.880C80.330,35.880,84.110,45.720,84.990,48.540C85.520,50.220,83.990,55.050,79.390,54.540C74.790,54.030,74.160,47.540,65.200,45.020C62.450,44.260,53.590,45.370,53.590,50.540C53.590,55.140,68.590,57.400,75.960,60.250C83.680,63.250,87.190,67.390,87.190,74.430C87.190,88.710,71.770,92.130,65.390,92.130C45.210,92.130,40.830,78.130,40.830,75.760C40.737,74.328,41.251,72.923,42.246,71.890C43.241,70.857,44.626,70.290,46.060,70.330C53.010,70.330,50.340,82.610,63.670,82.610C74.140,82.610,75.190,77.760,75.190,75.380C75.190,68.530,56.920,66.150,56.920,66.150C56.920,66.150,41.400,63.710,41.400,51.580ZZ" style="fill: rgb(255, 255, 255); fill-opacity: 0.9;"/></g></g></g></svg>