<svg xmlns:xlink="http://www.w3.org/1999/xlink" width="26" xmlns="http://www.w3.org/2000/svg" height="26" id="screenshot-3a4a1928-1348-8019-8003-d8858bf60716" viewBox="-1 -1 26 26" style="-webkit-print-color-adjust: exact;" fill="none" version="1.1"><g id="shape-3a4a1928-1348-8019-8003-d8858bf60716" width="24" class="feather feather-twitter" height="24" rx="0" ry="0" style="fill: rgb(0, 0, 0);"><g id="shape-3a4a1928-1348-8019-8003-d8858bf998b9"><g class="fills" id="fills-3a4a1928-1348-8019-8003-d8858bf998b9"><path fill="none" stroke-linecap="round" stroke-linejoin="round" rx="0" ry="0" d="M23.000,3.000C22.042,3.675,20.982,4.192,19.860,4.530C18.626,3.112,16.638,2.614,14.882,3.284C13.126,3.955,11.975,5.650,12.000,7.530L12.000,8.530C8.431,8.623,5.052,6.922,3.000,4.000C3.000,4.000,-1.000,13.000,8.000,17.000C5.941,18.398,3.487,19.099,1.000,19.000C10.000,24.000,21.000,19.000,21.000,7.500C20.999,7.221,20.972,6.944,20.920,6.670C21.941,5.663,22.661,4.393,23.000,3.000ZZ" style="fill: none;"/></g><g id="strokes-3a4a1928-1348-8019-8003-d8858bf998b9" class="strokes"><g class="stroke-shape"><path stroke-linecap="round" stroke-linejoin="round" rx="0" ry="0" d="M23.000,3.000C22.042,3.675,20.982,4.192,19.860,4.530C18.626,3.112,16.638,2.614,14.882,3.284C13.126,3.955,11.975,5.650,12.000,7.530L12.000,8.530C8.431,8.623,5.052,6.922,3.000,4.000C3.000,4.000,-1.000,13.000,8.000,17.000C5.941,18.398,3.487,19.099,1.000,19.000C10.000,24.000,21.000,19.000,21.000,7.500C20.999,7.221,20.972,6.944,20.920,6.670C21.941,5.663,22.661,4.393,23.000,3.000ZZ" style="fill: none; stroke-width: 2; stroke: rgb(255, 255, 255); stroke-opacity: 0.9;"/></g></g></g></g></svg>