<svg xmlns:xlink="http://www.w3.org/1999/xlink" width="26" xmlns="http://www.w3.org/2000/svg" height="26" id="screenshot-3a4a1928-1348-8019-8003-d8849b0da926" viewBox="-1 -1 26 26" style="-webkit-print-color-adjust: exact;" fill="none" version="1.1"><g id="shape-3a4a1928-1348-8019-8003-d8849b0da926" width="24" class="feather feather-facebook" height="24" rx="0" ry="0" style="fill: rgb(0, 0, 0);"><g id="shape-3a4a1928-1348-8019-8003-d8849b1140c3"><g class="fills" id="fills-3a4a1928-1348-8019-8003-d8849b1140c3"><path fill="none" stroke-linecap="round" stroke-linejoin="round" rx="0" ry="0" d="M18.000,2.000L15.000,2.000C12.239,2.000,10.000,4.239,10.000,7.000L10.000,10.000L7.000,10.000L7.000,14.000L10.000,14.000L10.000,22.000L14.000,22.000L14.000,14.000L17.000,14.000L18.000,10.000L14.000,10.000L14.000,7.000C14.000,6.448,14.448,6.000,15.000,6.000L18.000,6.000Z" style="fill: none;"/></g><g id="strokes-3a4a1928-1348-8019-8003-d8849b1140c3" class="strokes"><g class="stroke-shape"><path stroke-linecap="round" stroke-linejoin="round" rx="0" ry="0" d="M18.000,2.000L15.000,2.000C12.239,2.000,10.000,4.239,10.000,7.000L10.000,10.000L7.000,10.000L7.000,14.000L10.000,14.000L10.000,22.000L14.000,22.000L14.000,14.000L17.000,14.000L18.000,10.000L14.000,10.000L14.000,7.000C14.000,6.448,14.448,6.000,15.000,6.000L18.000,6.000Z" style="fill: none; stroke-width: 2; stroke: rgb(255, 255, 255); stroke-opacity: 0.9;"/></g></g></g></g></svg>